<svg id="Layer_1" data-name="Layer 1" xmlns="http://www.w3.org/2000/svg" viewBox="0 0 500 280"><defs><style>.cls-1,.cls-4{fill:#666;}.cls-1,.cls-3{fill-rule:evenodd;}.cls-2,.cls-3{fill:#c00;stroke:#c00;stroke-miterlimit:10;}.cls-5{fill:#be1e2d;}</style></defs><title>EvaQlueation Logo SVG</title><path class="cls-1" d="M283.69,116c-9.62,16.93-22,34-30.76,47.53a6.25,6.25,0,0,1-10.5,0C233.65,150,221.3,132.93,211.67,116a6.28,6.28,0,0,1,1.66-8.12l7.88-5.91h0a37.52,37.52,0,0,0,52.37.56l.57-.56h0l7.87,5.92A6.28,6.28,0,0,1,283.69,116Z"/><path class="cls-1" d="M257.35,19.08a53.13,53.13,0,0,1,11.43,3.49,3.15,3.15,0,0,0,3.86-1.1L274,19.53h0a2.68,2.68,0,0,1-.67-3.66l.37-.55a2.56,2.56,0,0,1,3.6-.67l7.08,4.95a2.67,2.67,0,0,1,.66,3.66l-.37.55a2.56,2.56,0,0,1-3.6.67h0l-.78,1.16a3.14,3.14,0,0,0,.67,4.22c1.12.9,2.22,1.84,3.27,2.83a3.14,3.14,0,0,1-.25,4.79l-8.12,6.1h0a39.85,39.85,0,0,0-56.17,0h0l-8.12-6.1a3.12,3.12,0,0,1-.25-4.79q1.58-1.49,3.27-2.83a3.15,3.15,0,0,0,.67-4.22l-.79-1.16h0a2.56,2.56,0,0,1-3.6-.67l-.37-.55a2.66,2.66,0,0,1,.67-3.66l7.07-4.95a2.56,2.56,0,0,1,3.6.67l.37.55a2.67,2.67,0,0,1-.66,3.66h0l1.3,1.94a3.15,3.15,0,0,0,3.86,1.1A53.39,53.39,0,0,1,238,19.08,3.13,3.13,0,0,0,240.6,16V9.83h0a4.34,4.34,0,0,1-4.3-4.37V4.37A4.35,4.35,0,0,1,240.57,0H254.8a4.35,4.35,0,0,1,4.29,4.37V5.46a4.34,4.34,0,0,1-4.29,4.37h0V16A3.14,3.14,0,0,0,257.35,19.08Z"/><ellipse class="cls-2" cx="247.68" cy="73.01" rx="11.29" ry="11.49"/><path class="cls-3" d="M207.35,73a41.39,41.39,0,0,1,4.94-19.69A6.51,6.51,0,0,0,210.46,45h0a6.53,6.53,0,0,0-9.7,2.15,55.17,55.17,0,0,0,0,51.66,6.54,6.54,0,0,0,9.7,2.16h0a6.51,6.51,0,0,0,1.83-8.29A41.43,41.43,0,0,1,207.35,73Z"/><path class="cls-3" d="M181.33,73a68.11,68.11,0,0,1,9.75-35.24,6.51,6.51,0,0,0-1.67-8.57h0a6.55,6.55,0,0,0-9.56,1.92,82,82,0,0,0,0,83.8,6.55,6.55,0,0,0,9.56,1.92h0a6.52,6.52,0,0,0,1.67-8.58A68.08,68.08,0,0,1,181.33,73Z"/><path class="cls-3" d="M155.31,73A94.72,94.72,0,0,1,170,22.19a6.56,6.56,0,0,0-1.56-8.77h0A6.53,6.53,0,0,0,159,15.16a108.79,108.79,0,0,0,0,115.71,6.54,6.54,0,0,0,9.46,1.74h0a6.56,6.56,0,0,0,1.56-8.77A94.76,94.76,0,0,1,155.31,73Z"/><path class="cls-3" d="M284.9,45a6.51,6.51,0,0,0-1.83,8.29,41.73,41.73,0,0,1,0,39.39A6.51,6.51,0,0,0,284.9,101h0a6.53,6.53,0,0,0,9.69-2.16,55.17,55.17,0,0,0,0-51.66A6.53,6.53,0,0,0,284.91,45Z"/><path class="cls-3" d="M306,29.2a6.52,6.52,0,0,0-1.68,8.57,68.56,68.56,0,0,1,0,70.48,6.53,6.53,0,0,0,1.68,8.58h0a6.56,6.56,0,0,0,9.57-1.92,82,82,0,0,0,0-83.8A6.56,6.56,0,0,0,306,29.19Z"/><path class="cls-3" d="M326.94,13.42a6.55,6.55,0,0,0-1.55,8.77,95.41,95.41,0,0,1,0,101.65,6.57,6.57,0,0,0,1.56,8.77h0a6.54,6.54,0,0,0,9.46-1.74,108.84,108.84,0,0,0,0-115.71A6.53,6.53,0,0,0,327,13.42Z"/><rect class="cls-4" x="246.77" y="37.74" width="1.83" height="5.76"/><rect class="cls-4" x="246.77" y="102.53" width="1.83" height="5.76"/><rect class="cls-4" x="276.69" y="72.08" width="5.66" height="1.87"/><rect class="cls-4" x="213.02" y="72.08" width="5.66" height="1.87"/><polygon class="cls-1" points="271.55 47.41 272.84 48.73 268.84 52.8 267.55 51.48 271.55 47.41"/><polygon class="cls-1" points="226.52 93.22 227.82 94.54 223.82 98.61 222.52 97.29 226.52 93.22"/><polygon class="cls-1" points="272.84 97.29 271.55 98.61 267.55 94.54 268.84 93.22 272.84 97.29"/><polygon class="cls-1" points="227.82 51.48 226.52 52.8 222.52 48.73 223.82 47.41 227.82 51.48"/><path class="cls-5" d="M191.36,270a4.67,4.67,0,0,1-2.62-4.49V202.64c0-2.37-1.84-3.58-5.46-3.58-3.2,0-5,.94-5.39,2.8a24.85,24.85,0,0,0-15.06-4.74,25.95,25.95,0,1,0,15,47.21v21.22a15.35,15.35,0,0,0,8.2,14.09,3,3,0,0,0,1.42.36c1.59,0,2.89-1.13,4.48-3.9,2-3.46.8-5.2-.56-6.06m-28.53-30.76a16.18,16.18,0,1,1,11.48-4.72,15.8,15.8,0,0,1-11.48,4.72"/><path class="cls-5" d="M208.7,243.65a4.27,4.27,0,0,1-2.4-4.12V176.19c0-2.36-1.8-3.56-5.34-3.56s-5.34,1.2-5.34,3.56v63.34A14.59,14.59,0,0,0,203.4,253a3.05,3.05,0,0,0,1.53.42c1.59,0,2.86-1.1,4.38-3.81,2.06-3.65.5-5.27-.61-5.91"/><path class="cls-5" d="M253.26,201.78c-1.52-2.71-2.79-3.81-4.38-3.81a3.09,3.09,0,0,0-1.55.43,14.57,14.57,0,0,0-7.77,13.19v.23l0,18.56a7.81,7.81,0,0,1-13.38,5.49,7.33,7.33,0,0,1-2.3-5.49V203.9c0-2.37-1.82-3.56-5.4-3.56s-5.4,1.19-5.4,3.56v26.48a18.64,18.64,0,0,0,37.28,0V213l0-1.25a4.14,4.14,0,0,1,2.29-4.08c1.11-.64,2.67-2.26.61-5.91"/><path class="cls-5" d="M299.92,206a25.05,25.05,0,1,0-17.71,42.76,26.86,26.86,0,0,0,11.63-2.41,13.35,13.35,0,0,0,2.33-1.31,6.21,6.21,0,0,1,1.21-.69,3,3,0,0,1,1.65-.07,3.71,3.71,0,0,0,.74.07c1.22,0,3.36-.56,4.06-4.36.39-2.06.56-4.37-1.13-5.77a3.64,3.64,0,0,0-1.73-.79,15.58,15.58,0,0,0-2.79-.26,10.32,10.32,0,0,0-6.72,2.31,10.16,10.16,0,0,1-2.33,1.54c-1.75.91-4.5,1.36-8.16,1.36a14.28,14.28,0,0,1-10.37-4.27,15,15,0,0,1-3.14-4.58.43.43,0,0,1,0-.43.42.42,0,0,1,.36-.2h34.2a5.35,5.35,0,0,0,3.77-1.56l.05-.06a5.18,5.18,0,0,0,1.38-3.57A24.24,24.24,0,0,0,299.92,206m-17.71,1.8a16.07,16.07,0,0,1,15.33,11.7.2.2,0,0,1,0,.18.22.22,0,0,1-.17.09H267a.21.21,0,0,1-.18-.09.2.2,0,0,1,0-.18,15.78,15.78,0,0,1,4.1-7,15.56,15.56,0,0,1,11.28-4.67"/><path class="cls-4" d="M311,233.58v-.18c0-9.91,8.19-15.19,20.11-15.19a50,50,0,0,1,14.46,2v-1.63c0-8.46-5.18-12.83-14-12.83a29.32,29.32,0,0,0-12.19,2.64,3.58,3.58,0,0,1-1.27.27,3.1,3.1,0,0,1-3.09-3,3.2,3.2,0,0,1,1.91-2.91,37.11,37.11,0,0,1,15.37-3.19c6.64,0,11.73,1.73,15.19,5.19,3.18,3.18,4.82,7.73,4.82,13.73v25.75a3.31,3.31,0,0,1-3.36,3.45,3.22,3.22,0,0,1-3.37-3.27v-4.28a20.59,20.59,0,0,1-17,8.1C319.8,248.23,311,243.23,311,233.58ZM345.63,230V225.4a49.08,49.08,0,0,0-13.83-2c-8.82,0-13.73,3.82-13.73,9.73v.18c0,5.91,5.46,9.37,11.82,9.37C338.54,242.68,345.63,237.4,345.63,230Z"/><path class="cls-4" d="M362.37,234.77V206.39h-3.82a3.19,3.19,0,0,1-3.09-3.1,3.12,3.12,0,0,1,3.09-3.09h3.82V189.1a3.47,3.47,0,0,1,3.46-3.54,3.61,3.61,0,0,1,3.55,3.54v11.1h12.18a3.21,3.21,0,0,1,3.19,3.09,3.15,3.15,0,0,1-3.19,3.1H369.38v27.47c0,5.73,3.18,7.82,7.91,7.82a19.65,19.65,0,0,0,4.27-.64,3,3,0,0,1,3,3,2.91,2.91,0,0,1-2,2.73,17.64,17.64,0,0,1-6.91,1.28C368.1,248.05,362.37,244.32,362.37,234.77Z"/><path class="cls-4" d="M389.84,185.47c0-2.28,1.82-3.73,4.1-3.73s4.18,1.45,4.18,3.73v1.18c0,2.18-1.82,3.73-4.18,3.73a3.84,3.84,0,0,1-4.1-3.73Zm.64,17.82a3.53,3.53,0,0,1,3.46-3.54,3.48,3.48,0,0,1,3.54,3.54v40.85a3.41,3.41,0,0,1-3.45,3.54,3.49,3.49,0,0,1-3.55-3.54Z"/><path class="cls-4" d="M404,223.94v-.18a24.52,24.52,0,0,1,49-.18v.18a24.42,24.42,0,0,1-24.65,24.56A24.09,24.09,0,0,1,404,223.94Zm41.85,0v-.18c0-10.1-7.55-18.37-17.47-18.37-10.19,0-17.19,8.27-17.19,18.19v.18c0,10.1,7.46,18.28,17.37,18.28C438.78,242,445.88,233.86,445.88,223.94Z"/><path class="cls-4" d="M458.89,203.29a3.5,3.5,0,1,1,7,0v5.1c3.09-5.1,8-9.19,16.1-9.19,11.37,0,18,7.64,18,18.83v26.11a3.5,3.5,0,1,1-7,0V219.76c0-8.73-4.73-14.19-13-14.19-8.1,0-14.1,5.91-14.1,14.73v23.84a3.42,3.42,0,0,1-3.46,3.54,3.48,3.48,0,0,1-3.54-3.54Z"/><path class="cls-4" d="M23.47,248.32C10.55,248.32,0,238.41,0,223.85v-.18c0-13.55,9.55-24.47,22.56-24.47,13.92,0,21.83,11.37,21.83,23.83a3.27,3.27,0,0,1-3.27,3.28H7.1c1,10.19,8.18,15.92,16.55,15.92a19.22,19.22,0,0,0,13.55-5.46A3,3,0,0,1,42.3,239a3,3,0,0,1-1.09,2.27A23.91,23.91,0,0,1,23.47,248.32Zm13.92-27.2c-.73-8.55-5.64-16-15-16-8.19,0-14.38,6.83-15.28,16Z"/><path class="cls-4" d="M66.86,248H66.5c-1.91,0-3.19-1.19-4-3L44.85,205.11a7.29,7.29,0,0,1-.46-1.91,3.61,3.61,0,0,1,7.1-.72l15.19,36.74,15.46-36.93a3.36,3.36,0,0,1,3.28-2.54,3.44,3.44,0,0,1,3.45,3.45,4.86,4.86,0,0,1-.36,1.73L70.77,245C70,246.77,68.77,248,66.86,248Z"/><path class="cls-4" d="M88.79,233.58v-.18c0-9.91,8.18-15.19,20.1-15.19a50,50,0,0,1,14.46,2v-1.63c0-8.46-5.18-12.83-14-12.83a29.32,29.32,0,0,0-12.19,2.64,3.58,3.58,0,0,1-1.27.27,3.1,3.1,0,0,1-3.09-3,3.2,3.2,0,0,1,1.91-2.91,37.11,37.11,0,0,1,15.37-3.19c6.64,0,11.73,1.73,15.19,5.19,3.19,3.18,4.82,7.73,4.82,13.73v25.75a3.31,3.31,0,0,1-3.36,3.45,3.23,3.23,0,0,1-3.37-3.27v-4.28a20.59,20.59,0,0,1-17,8.1C97.61,248.23,88.79,243.23,88.79,233.58ZM123.44,230V225.4a49,49,0,0,0-13.82-2c-8.83,0-13.74,3.82-13.74,9.73v.18c0,5.91,5.46,9.37,11.83,9.37C116.35,242.68,123.44,237.4,123.44,230Z"/></svg>